<svg xmlns="http://www.w3.org/2000/svg" viewBox="0 0 2558.8 638.07"><defs><style>.cls-1{fill:#e4e5e8;}.cls-2{fill:#3c829b;}.cls-3{fill:#172467;}.cls-4{fill:#172567;}.cls-5{fill:#479b9b;}.cls-6{fill:#9a999e;}.cls-7{fill:#a5cdd9;}.cls-8{fill:#489c9b;}.cls-9{fill:#d5dfe3;}.cls-10{fill:#9d9ca1;}.cls-11{fill:#d3dee2;}.cls-12{fill:#9b999e;}.cls-13{fill:#a5cdda;}.cls-14{fill:#d4dfe3;}.cls-15{fill:#fefefe;}.cls-16{fill:#a5a5aa;}.cls-17{fill:#afafb4;}.cls-18{fill:#adacb2;}.cls-19{fill:#ababb0;}.cls-20{fill:#b1b1b6;}.cls-21{fill:#fff;}</style></defs><title>Logo_acontis_blanco</title><g id="Capa_2" data-name="Capa 2"><g id="Capa_1-2" data-name="Capa 1"><path class="cls-1" d="M201.69,440.55c-7.36,3.44-12.51,9.34-17.36,15.58a22.56,22.56,0,0,0-2,3.65c-3.8,5.7-9.76,9.14-14.51,13.87-9.21,9.35-18.11,19-27.92,27.69-6,5.27-8.18,11.16-8.13,18.93.23,34.39.15,68.79.05,103.19,0,4.8,1,9.92-2.66,14.1-3.59-2.77-2-6.7-2-10.08-.13-35.79-.06-71.57-.13-107.36,0-2.49,1.31-6-1.32-7.27-3.38-1.66-5,2.17-6.94,4Q75,558.52,31.27,600.26c-4.26,4-9.43,7.23-13.23,11.64-6,7-9.87,5.87-13.09-2.07,19.75-20.18,40.65-39.15,61.5-58.16,13.83-12.62,27-25.9,40.59-38.79,29.51-28.05,59.78-55.31,88.66-84,2.85-2.83,5.07-7.23,10.36-6.22,6.6,14.53,13.21,29.05,21.05,46.31.3-5.72.58-8.68.58-11.64q0-108.45.09-216.89c0-3.77-1.44-7.94,1.78-11.27,4.76,4.89,3.28,11.11,3.29,16.85q.17,105.43,0,210.89c0,12.39,1.4,24.2,7,35.32,1.68,4.91,4.09,9.62,4.48,15.95,0,.28,2.29-1.49,1-1-.26.09-.4-.13-.36-.67.95-12.52,5.2-24.31,8.36-36.3q29.21-110.65,58.29-221.33c1.82-6.89,1.31-15.19,8.72-19.76,7.87,8.74,8.39,21.56,16.65,30.42,3.27-3.09-.37-8,3.17-10.64a6.35,6.35,0,0,1,2.59,6.07c-1,13.53,5.55,24.75,10.89,36.3,10.19,22,21.44,43.57,30.6,66.08,4.79,9.73,10.57,19,13.23,29.72,6.55,18.74,13.83,37.13,25.67,53.32,3.29,2.09,2.63,6.63,5.93,9.66,5.67-8.86,9-18.42,13-27.58q64-148.51,128.85-296.68C586.63,89.55,602.06,53.24,618,17.16c2-4.57,3.59-9.48,10.09-8.92,4.81,2.89,2.67,6.74,1.17,10.21-13,30.07-26.06,60.08-39,90.14q-30.36,70.32-60.65,140.69C524,262.17,516.72,274.36,514,288.39c-3.37,11.09-8.23,21.6-12.64,32.3-9.87,23.33-19.48,46.76-30.14,69.72-6.35,13.67-9.73,27.38-9.59,42.68.55,63.13.26,126.27.18,189.41,0,5.16,1.06,10.61-2.59,15.2-4.57-2.68-2.43-7.12-2.44-10.7q-.21-96.75-.1-193.5V420.83c-6.7,6.79-7.81,14.75-11.16,21.35-5.17,10.23-9.63,20.85-13.83,31.52-2.17,5.54-3.88,4.15-6.34.58-2.62-6.7-6.4-12.88-8.79-19.68-5.05-10.8-10.59-21.35-15.66-32.14s-11.39-21.06-15.67-32.28c-11.06-24.24-22.46-48.33-33.94-72.36-9.06-19-16.46-38.69-26.36-57.26-1-1.92-.72-4.82-4.17-4.22q-14,54.35-27.93,108.7c-3.37,13.23-6.49,26.52-9.73,39.78-2,2.58-.28,5.81-1.46,8.54-1.77,13.73-5.58,27-9.5,40.19-6.51,25.15-12.79,50.35-19.92,75.32-1.2,4.19-1.46,12.19-9.73,6.06-12.42-30.3-24.73-60.66-38.07-90.59C203.76,442.84,203.47,441.19,201.69,440.55Z"/><path class="cls-2" d="M383.41,637.62l-42.51.21c-2.82-3.13-1.37-6.93-1.37-10.37q-.15-162.86-.09-325.69c.35-1.55-.65-4.55,2.67-3.29,1.79.68,2.36,3,3.19,4.76,12.95,27.09,25.48,54.36,38.43,81.45a27.72,27.72,0,0,1,2.52,9.42c1.18,10.17.79,20.37.79,30.55q0,98.08-.05,196.18C387,626.6,388.34,632.84,383.41,637.62Z"/><path class="cls-3" d="M459.23,637.7c-.32-3.57-.93-7.15-.93-10.73q-.09-102.59-.11-205.19a38.41,38.41,0,0,1,3.27-16.18c13-29,25.79-58,38.66-87,4,3.54,3.42,8.38,3.43,12.89q.15,146.65,0,293.3c0,4.56.36,9.35-3.62,12.85Z"/><path class="cls-4" d="M458.4,87.57q19.94-31.53,39.86-63l2.44.73V41.34c3.4,3.85,2.87,8.62,2.85,13.15-.23,69,.71,138.07-.47,207.09-3.31,14.54-10.66,27.51-16.3,41.14-6.28,15.19-13.12,30.15-19.64,45.25-1.62,3.75-2.95,7.86-7.13,9.62-2.9-2-2-4.55-2-6.65q-.09-129.74,0-259.46A14.66,14.66,0,0,1,458.4,87.57Z"/><path class="cls-5" d="M238.33,495.2c-6.54-11.31-9.31-23.2-9.22-36.54.54-76.5.38-153,.46-229.53,12-21.37,26.1-41.34,40.79-64.42l1,14.94c4.25,4.69,3.07,10.52,3.07,15.95-.07,56.4.47,112.79-.33,169.16-1,18.21-7.95,35.09-12.18,52.57-5.46,22.63-11.68,45.09-17.74,67.57C243.13,488.7,243.58,493.66,238.33,495.2Z"/><path class="cls-6" d="M458.4,87.57c.14,28.26.38,56.53.41,84.79q.09,86.82,0,173.63v9.51l1.8.46q20-46.77,40.07-93.52c3.56-11.86,5.9-24.28,15.17-33.55,7.42-17.46,14.79-34.94,22.27-52.37q21.6-50.24,43.3-100.41c10.5-24.25,21.26-48.39,31.44-72.78,1.51-3.6,3.34-3.68,5.82-3a15.52,15.52,0,0,1,9.41,7.9c-4,1.45-5.73,4.57-7.36,8.35q-83.7,193.08-167.63,386.07c-7.66,17.63-15.31,35.27-23.4,53.9-4.47-5.6-6.56-10.51-6.59-16.24C434,415.53,444.78,390.7,455.9,366c1.48-3.29,1.28-6.35,1.28-9.55q0-130.23.08-260.45C457.26,93.22,456.06,90.11,458.4,87.57Z"/><path class="cls-7" d="M129.18,637.56q-.13-62.17-.26-124.35c0-2.94-.24-5.91,2.27-8.24q18.72-17.46,37.38-35c6.71,2.48,5,8.48,5,13.25.26,34.38.12,68.77.13,103.15,0,12.77.09,25.55,0,38.32-.05,4.53.34,9.28-3.39,12.89Z"/><path class="cls-8" d="M243.67,533.58c5.51,6.75,5-.79,5.52-2.72,6.18-22.7,12.1-45.47,18.05-68.23.83-3.14,1.51-6.32,2.26-9.48,6.52.89,4.58,6.31,4.73,9.91.55,12.49.22,25,.22,37.5,0,40.47.09,80.94-.09,121.41,0,5.66,1.45,12.2-5.29,15.77-13.32-.89-26.75,1.39-40-1.35-.46-42.18-.09-84.35.74-126.75C237.26,516.27,238.31,526.16,243.67,533.58Z"/><path class="cls-9" d="M499.94,637.62a13.12,13.12,0,0,0,.29-2q0-158.53-.11-317.09c3.9-10.4,6.95-21.19,13.89-30.19q.07,170.6.29,341.19C514.33,642.31,505.67,636.68,499.94,637.62Z"/><path class="cls-2" d="M382.07,358.9c-11.15-24.13-21.84-48.49-33.64-72.29-6-12.14-9.38-24.34-8.28-37.78l41.72-61.59c5.4,6.32,4.74,14.48,4.84,21.59.66,46.29.46,92.6.16,138.91C386.84,351.71,388.66,357.37,382.07,358.9Z"/><path class="cls-10" d="M206.06,422.63q-48.26,45.6-96.51,91.2-48.64,45.9-97.38,91.71c-2.06,1.93-3.59,4.94-7.22,4.29-7.47-6-5.85-10.67.64-17.08C27.66,571,50.8,550.32,73.16,528.87c17.93-17.18,36.32-33.89,53.91-51.43,1.11-.84,1.5-2.15,2.16-3.29,11.82-14.41,27.63-24.68,39.92-38.61,3.95-3.63,7.55-7.64,11.61-11.17a4.63,4.63,0,0,1,3.8-1.11c1.15-1.09,2.33-2.15,3.44-3.28C198,409.89,198.79,410,206.06,422.63Z"/><path class="cls-11" d="M383.41,637.62c.23-4.25.66-8.51.67-12.76q.21-116.91.33-233.8a1.54,1.54,0,0,1,2.27.64c3.71,9.89,11.23,18.13,12.56,29.05-2.9,3.46-1.53,7.57-1.54,11.36q-.13,95.94-.07,191.88C397.63,638.16,397.62,638.16,383.41,637.62Z"/><path class="cls-12" d="M238.33,495.2Q254.62,434,270.86,372.88a27.31,27.31,0,0,0,.43-4.9c2.64-14,4.85-28.17,9.34-41.8a14,14,0,0,1,4-6.43c8.72-33.95,17.44-67.91,26.94-104.87,3.73,6.68,8.46,8.75,8.76,14.17-12,38.2-20.87,77.23-31.19,115.88C275.51,396,262.29,447.19,248.85,498.31c-1,3.8-2.32,7.5-3.84,12.33C241.48,505.36,239.88,500.29,238.33,495.2Z"/><path class="cls-9" d="M515.87,228.89q-7.58,16.77-15.17,33.55V41.34l11.16-17.23c3.84,3.31,2.23,7.17,2.24,10.49.11,61,0,122,.16,183C514.26,221.36,512.79,225.5,515.87,228.89Z"/><path class="cls-13" d="M170.73,436.68c-13,14.1-27.53,26.56-41.76,39.36-1.69-22.34-.95-44.69-.36-67,12.28-13.31,26.5-24.48,40.16-36.28,5,1.58,1.47,6.85,4.15,9.44,1.47,15,.53,30.11.58,45.17C173.51,430.7,172.08,433.69,170.73,436.68Z"/><path class="cls-14" d="M382.07,358.9c3-1.67,2-4.59,2-7q0-78.74-.25-157.45c0-2.5.8-5.36-1.95-7.17,3.77,1.29,3.77,1.29,4.5,11.46l11.1-14.2c0,69.3,0,135.9,0,202.5Z"/><path class="cls-14" d="M170.29,637.57l.3-161.38c0-2.28.2-4.65-2-6.23l13.76-11.79c1.66,2.38,1,5.09,1,7.66q.06,82.23,0,164.46c0,2.56.71,5.28-1.06,7.63Z"/><path class="cls-14" d="M269.07,637.74c2.27-2.42,2-5.45,2-8.4q0-84.92,0-169.83c0-2.19.8-4.68-1.5-6.36,5-13.16,6-27.48,11.68-40.42,1.52,2.42.9,5.11.91,7.69q0,104.93,0,209.85c0,2.57.68,5.29-1,7.66Z"/><path class="cls-14" d="M282.88,325.68c-3.26,14.26-6,28.67-11.59,42.3q0-94.17,0-188.33c4.13-3.22,5-9.14,9.82-11.82,1.83,3.4.91,7.07.91,10.6q.12,61.38,0,122.76A235.45,235.45,0,0,0,282.88,325.68Z"/><path class="cls-15" d="M340.45,298c-.11,34.15-.28,68.31-.3,102.46q-.07,112.83,0,225.65c0,3.91.48,7.83.73,11.74-3.37-1.83-2.43-5.09-2.43-7.9q0-168,.16-336.09C341.6,294.17,341.85,295.71,340.45,298Z"/><path class="cls-14" d="M170.73,436.68q.11-27.93.2-55.87a3.3,3.3,0,0,1,1.57-1.74l8-5.95c2.13-.08,2.85,1.22,2.81,3.06-.37,16.33,1.08,32.69-.76,49C179.29,429.73,175.11,433.31,170.73,436.68Z"/><path class="cls-16" d="M243.67,533.58c-7.11-5.78-7.92-15.29-14.6-22.2v125c-.24-37.11-1.24-74.22-.34-111.28.41-17.14-4.22-32.1-11.42-46.94-5.93-12.23-11.58-24.6-15.62-37.64,1.44-2.2,2.79-1.27,3.47.42C217.69,472,232.66,502,243.67,533.58Z"/><path class="cls-17" d="M340.45,298c-.61-1.38-1.22-2.76-1.84-4.13q-8.91-18.77-17.84-37.5c2.66-4.35,3.77-1.51,5,1.06q23.87,50.7,47.73,101.42c4.73,10.08,9.3,20.24,13.95,30.37-.53.82-.64,2-1.89,2.21-.38-.1-.76-.22-1.13-.35C370.75,359.56,356.46,328.37,340.45,298Z"/><path class="cls-15" d="M281.07,637.93q.06-112.6.11-225.2c.33-2.72-.85-5.8,1.93-7.91q0,111.46,0,222.93C283.07,631.19,284.45,635.08,281.07,637.93Z"/><path class="cls-15" d="M182.26,637.92q0-89.88.07-179.75l2-2q0,85.82,0,171.64C184.3,631.2,185.71,635.1,182.26,637.92Z"/><path class="cls-15" d="M282.88,325.68c-2.83-3.09-1.57-6.88-1.58-10.35q-.18-73.74-.15-147.5c3.92,1.82,1.87,5.31,1.88,7.9.15,44.54.08,89.07.16,133.61,0,3.48-1.15,7.24,1.44,10.41C284.05,321.73,283.46,323.7,282.88,325.68Z"/><path class="cls-18" d="M402.05,422a217.47,217.47,0,0,1,15.47,32.06c1.18,2.19,1.42,3.95-1.89,4.05a280.26,280.26,0,0,0-15.75-33.57C400.58,423.7,400.73,422.35,402.05,422Z"/><path class="cls-15" d="M182.52,425.18c0-14.31,0-28.61-.14-42.91,0-3.12,1.05-6.59-1.91-9.15,6.42-1.84,3.71,3.44,3.76,5.46.32,14.89.27,29.78.33,44.68Z"/><path class="cls-19" d="M402.05,422l-2.17,2.54c-.22-1.27-.43-2.54-.64-3.8q-6.86-14.68-13.69-29.36l1.88-2.21C391.8,400.36,398.87,410.32,402.05,422Z"/><path class="cls-20" d="M415.63,458.13c1.58-.91,1.78-2.46,1.89-4.05,3.82,6.26,7.62,12.54,7.84,20.2Z"/><path class="cls-15" d="M172.5,379.07l-1.57,1.74c-.63-2.72.58-5.93-2.16-8.09C175.76,371.46,171.07,377.06,172.5,379.07Z"/><path class="cls-21" d="M1657.48,476.08l-13.08.06c-3.21-8,.43-16.6-2.14-24.66a2.86,2.86,0,0,0,0-3.85c1.48-3.82.81-7.81.81-11.72q.06-138.54.1-277.06c0-3.46-1.39-7.24,1.33-10.4,11.22-1.82,18.7,3.6,26.08,11.56,43.56,46.87,87.53,93.35,131.37,140q49.45,52.57,98.92,105.13c3.88.16,2.92-2.84,2.92-4.84,0-78.77.2-157.53-.07-236.3a9,9,0,0,0-.75-2.84,9,9,0,0,0,.58-1.36c0-.12-.37-.35-.57-.53,2-3.36-.63-7.62,2.13-10.83,13.51.54,13.51.54,13.51,14.55V479.57c-9.57-6.64-16.28-14.12-22.43-21.64-4.36-5.32-9.07-10.12-13.77-15.05-25.7-26.93-51.56-53.69-76.73-81.1q-28.76-31.32-58.16-62c-21.46-22.35-43-44.61-63.48-67.88-7.33-8.34-15.78-15.53-22.62-24.24-5.16,2.33-2.43,6.91-2.44,10.24q-.29,123.9-.22,247.8C1658.79,469.14,1660.22,472.92,1657.48,476.08Z"/><path class="cls-21" d="M2115.86,318.17c0,49.37-.18,98.74.18,148.11.06,7.79-1.94,10.56-9.8,9.75a94.19,94.19,0,0,0-19.72,0c-8,.87-9.73-2.23-9.7-9.85.29-72.08.17-144.16.17-216.24,0-27-.26-54,.17-81,.12-7.15-1.37-9.51-9-9.34-28,.62-56,.31-83.92.64-4.16.05-6.46.28-6.18-5.16.25-4.81,1-6.66,6.48-6.65q112.08.32,224.14-.08c7.33,0,5.6,4,6,8,.53,4.69-2,6.17-5.65,5.29-16.53-4-33.25-1.05-49.86-1.75-11.5-.48-23.08.48-34.54-.29-7.87-.53-9,2.44-9,9.42C2116,218.77,2115.86,268.47,2115.86,318.17Z"/><path class="cls-21" d="M1111.8,470.44c31.84.19,61.22-8.79,88.89-24,1.44-.8,2.65-1.76,4.36-1.69,2.73,6.47,1.86,13,.44,19.59-31.47,6.05-62.48,14.88-94.77,16.19-12.46,1.07-24.94.77-37.41.16l-15.75-.57c-3.08-2.1-6.73-.16-9.93-1.41-31.66-3-61.48-11.13-87.89-29.91-20.91-14.87-35-34.91-46.33-57.36-8.82-17.47-13.19-36.1-14.46-55.53a220,220,0,0,1,0-33.47c4.36-43.14,21.63-80.29,52.75-110.47,24.25-23.5,53.94-37,86.84-43.5,10.78-2.12,21.8-3,32.71-4.47a131,131,0,0,1,27.57,0c25.07,1.7,48.81,8.79,72.41,17,7.62,2.64,8.77,8,10.43,14a19.41,19.41,0,0,0,0,11.92c-4.43,6.9-8.26.49-10.63-1.43-18-14.65-38.84-23.17-61-28.65-6.1-1.51-12.51-1.79-18.78-2.63a83.41,83.41,0,0,0-28,0c-49.53,2.3-88,24-114.72,65.88-11.15,17.49-17.83,36.53-17.65,57.58a32.06,32.06,0,0,0,0,15.87c-1.47,21.53,5.22,41.47,12,61.37,15.71,46,43.86,81.53,88.45,102.58,17.42,8.23,35.82,13.31,55.37,12.94A74.85,74.85,0,0,0,1111.8,470.44Z"/><path class="cls-21" d="M2523.14,180.35c-14.88-13.63-31.63-23.24-52.34-24.33-7-1.11-14-1.6-21.05.11-30.94-1-62.26,33.12-59.18,58.33-1.13,4.42-1.52,8.85,0,13.27.63,20.9,13.53,32.68,30.73,41.17,25,12.34,52.35,18.51,77.72,29.8,32,14.25,55.13,36.53,59.08,73,4.11,38-10.72,68.15-41.8,90.29-11.51,8.19-25.17,9.6-38.57,11.32-36.57,4.68-73.35,1.84-110,2.45-2.53,0-7.11,2.19-6.07-4.32.7-4.4,1.06-7,6.67-6.93,32.56.18,65.14.81,97.65-.45,27.88-1.08,51.74-11.59,66.17-37.33a51.41,51.41,0,0,0,6.81-21.43,26.43,26.43,0,0,0,.11-14.7c-3.31-27.86-23.31-40.72-46.12-50.65-24.95-10.87-51.25-18.34-75.9-30.09-19.9-9.49-31.8-25.39-39.36-45.3-2.4-6.3-4.63-12.7-5.09-19.53a104.63,104.63,0,0,1-.1-23.6c1.76-20,10.19-37.3,23.82-51.54,15.25-15.94,35.15-23,56.79-25.48,1.62-.18,3.24-.4,4.86-.6a78.24,78.24,0,0,1,19.64.16l47.18,8.34C2525.64,161.76,2529,171.33,2523.14,180.35Z"/><path class="cls-21" d="M2272.54,311.21c0-51,.18-102-.19-153,0-7.85,2-10.51,9.83-9.72a94.78,94.78,0,0,0,19.71,0c8.07-.89,9.72,2.27,9.69,9.86-.29,69.75-.17,139.5-.17,209.26,0,33.23-.2,66.46.16,99.69.08,7-1.89,9.28-8.81,8.72a131,131,0,0,0-21.7,0c-7.13.61-8.7-2.09-8.67-8.86C2272.66,415.19,2272.54,363.2,2272.54,311.21Z"/><path class="cls-21" d="M1579.37,268.87c-.81-3.12-1.88-6.2-2.4-9.38-4.19-25.47-16-47.09-33.07-66.12-28.67-31.89-65.49-46-107.26-49.37a115.24,115.24,0,0,0-25.59,0c-8.12.95-16.31,1.45-24.33,2.93-60.81,11.18-102.91,46.6-128.25,101.91-16.55,36.14-22.38,74.57-14.66,114,7,35.77,26.18,64.64,54.51,87.36,24.82,19.89,53.65,28.87,85.08,30.41a125.68,125.68,0,0,0,25.58,0c5.79-.79,11.56-1.73,17.37-2.36,19.91-2.16,39.33-6.78,56.82-16.44,36.13-19.95,62.86-49,79.94-86.73,13.58-30,17.41-61.78,17.72-94.25C1578.6,277,1580.83,272.72,1579.37,268.87Zm-76.67,167.5c-48.28,33.7-105.08,36.17-152.48,4.21-52.92-35.68-82.3-85.51-84.44-165.62-3-65.25,84.53-135.52,167-106.77,62.34,21.73,106.62,61.51,122.78,127.5A132.33,132.33,0,0,1,1502.7,436.37Z"/><path class="cls-21" d="M859.57,428.67Q805.71,293.13,750.52,158.12c-1.92-4.73-1-13.43-8.76-13.43S734,153.6,732,158.48c-11.88,28.89-21.8,58.6-34.12,87.28-14.48,33.7-27,68.16-40.88,102.06-16.66,40.56-31.83,81.77-48.58,122.33-1.28,3.1-2.24,5.41,1.58,8.05s6.61,2,9.76-.06c3-1.9,3.63-5.38,4.81-8.35q27.08-68.51,53.94-137.09c2.07-5.29,5.18-7.18,11.06-7.09,25,.37,50,.59,75-.06,9.65-.25,14.23,2.36,16.9,12.18,2,7.37,5.51,14.7,8.62,21.92,15.58,36.19,30,72.86,43.72,109.76,2,5.33,4.16,6.5,8.76,6.49,11.51,0,23,0,35.95,0C874.71,458.75,865.76,444.23,859.57,428.67ZM751,315.89H685.4L729,205.73c12.52,31.42,24.11,60.53,35.72,89.64C772.93,315.89,772.94,315.89,751,315.89Z"/></g></g></svg>